<svg width="21" height="22" viewBox="0 0 21 22" fill="none" xmlns="http://www.w3.org/2000/svg">
<g filter="url(#filter0_d_1_15663)">
<path fill-rule="evenodd" clip-rule="evenodd" d="M6.28548 14.309C6.00148 13.95 5.65648 13.216 5.04247 12.325C4.69447 11.821 3.83148 10.872 3.57448 10.39C3.35148 9.96404 3.37548 9.77304 3.42848 9.42004C3.52248 8.79204 4.16648 8.30304 4.85348 8.36904C5.37248 8.41804 5.81248 8.76104 6.20848 9.08504C6.44748 9.28004 6.74148 9.65904 6.91848 9.87304C7.08148 10.069 7.12147 10.15 7.29548 10.382C7.52548 10.689 7.59748 10.841 7.50948 10.503C7.43848 10.007 7.32247 9.16004 7.15447 8.41104C7.02647 7.84304 6.99548 7.75404 6.87348 7.31804C6.74448 6.85404 6.67848 6.52904 6.55748 6.03704C6.47347 5.68904 6.32247 4.97804 6.28148 4.57804C6.22448 4.03104 6.19447 3.13904 6.54548 2.72904C6.82048 2.40804 7.45148 2.31104 7.84247 2.50904C8.35448 2.76804 8.64547 3.51204 8.77847 3.80904C9.01747 4.34304 9.16547 4.96004 9.29448 5.77004C9.45848 6.80104 9.76047 8.23204 9.77047 8.53304C9.79448 8.16404 9.70248 7.38704 9.76648 7.03304C9.82448 6.71204 10.0945 6.33904 10.4325 6.23804C10.7185 6.15304 11.0535 6.12204 11.3485 6.18304C11.6615 6.24704 11.9915 6.47104 12.1145 6.68204C12.4765 7.30604 12.4835 8.58104 12.4985 8.51304C12.5845 8.13704 12.5695 7.28404 12.7825 6.92904C12.9225 6.69504 13.2795 6.48404 13.4695 6.45004C13.7635 6.39804 14.1245 6.38204 14.4335 6.44204C14.6825 6.49104 15.0195 6.78704 15.1105 6.92904C15.3285 7.27304 15.4525 8.24604 15.4895 8.58704C15.5045 8.72804 15.5635 8.19504 15.7825 7.85104C16.1885 7.21204 17.6255 7.08804 17.6805 8.49004C17.7055 9.14404 17.7005 9.11404 17.7005 9.55404C17.7005 10.071 17.6885 10.382 17.6605 10.756C17.6295 11.156 17.5435 12.06 17.4185 12.498C17.3325 12.799 17.0475 13.476 16.7665 13.882C16.7665 13.882 15.6925 15.132 15.5755 15.695C15.4575 16.257 15.4965 16.261 15.4735 16.66C15.4505 17.058 15.5945 17.582 15.5945 17.582C15.5945 17.582 14.7925 17.686 14.3605 17.617C13.9695 17.554 13.4855 16.776 13.3605 16.538C13.1885 16.21 12.8215 16.273 12.6785 16.515C12.4535 16.898 11.9695 17.585 11.6275 17.628C10.9595 17.712 9.57347 17.659 8.48847 17.648C8.48847 17.648 8.67348 16.637 8.26148 16.29C7.95648 16.031 7.43148 15.506 7.11748 15.23L6.28548 14.309Z" fill="white"/>
<path fill-rule="evenodd" clip-rule="evenodd" d="M6.28548 14.309C6.00148 13.95 5.65648 13.216 5.04247 12.325C4.69447 11.821 3.83148 10.872 3.57448 10.39C3.35148 9.96404 3.37548 9.77304 3.42848 9.42004C3.52248 8.79204 4.16648 8.30304 4.85348 8.36904C5.37248 8.41804 5.81248 8.76104 6.20848 9.08504C6.44748 9.28004 6.74148 9.65904 6.91848 9.87304C7.08148 10.069 7.12148 10.15 7.29548 10.382C7.52548 10.689 7.59748 10.841 7.50948 10.503C7.43848 10.007 7.32247 9.16004 7.15447 8.41104C7.02647 7.84304 6.99548 7.75404 6.87348 7.31804C6.74448 6.85404 6.67848 6.52904 6.55748 6.03704C6.47348 5.68904 6.32248 4.97804 6.28148 4.57804C6.22448 4.03104 6.19447 3.13904 6.54548 2.72904C6.82048 2.40804 7.45147 2.31104 7.84247 2.50904C8.35447 2.76804 8.64547 3.51204 8.77847 3.80904C9.01747 4.34304 9.16548 4.96004 9.29448 5.77004C9.45848 6.80104 9.76047 8.23204 9.77047 8.53304C9.79447 8.16404 9.70248 7.38704 9.76648 7.03304C9.82448 6.71204 10.0945 6.33904 10.4325 6.23804C10.7185 6.15304 11.0535 6.12204 11.3485 6.18304C11.6615 6.24704 11.9915 6.47104 12.1145 6.68204C12.4765 7.30604 12.4835 8.58104 12.4985 8.51304C12.5845 8.13704 12.5695 7.28404 12.7825 6.92904C12.9225 6.69504 13.2795 6.48404 13.4695 6.45004C13.7635 6.39804 14.1245 6.38204 14.4335 6.44204C14.6825 6.49104 15.0195 6.78704 15.1105 6.92904C15.3285 7.27304 15.4525 8.24604 15.4895 8.58704C15.5045 8.72804 15.5635 8.19504 15.7825 7.85104C16.1885 7.21204 17.6255 7.08804 17.6805 8.49004C17.7055 9.14404 17.7005 9.11404 17.7005 9.55404C17.7005 10.071 17.6885 10.382 17.6605 10.756C17.6295 11.156 17.5435 12.06 17.4185 12.498C17.3325 12.799 17.0475 13.476 16.7665 13.882C16.7665 13.882 15.6925 15.132 15.5755 15.695C15.4575 16.257 15.4965 16.261 15.4735 16.66C15.4505 17.058 15.5945 17.582 15.5945 17.582C15.5945 17.582 14.7925 17.686 14.3605 17.617C13.9695 17.554 13.4855 16.776 13.3605 16.538C13.1885 16.21 12.8215 16.273 12.6785 16.515C12.4535 16.898 11.9695 17.585 11.6275 17.628C10.9595 17.712 9.57347 17.659 8.48847 17.648C8.48847 17.648 8.67348 16.637 8.26148 16.29C7.95648 16.031 7.43148 15.506 7.11748 15.23L6.28548 14.309Z" stroke="black" stroke-width="0.75" stroke-linecap="round" stroke-linejoin="round"/>
<path d="M14.5205 14.6624V11.2034" stroke="black" stroke-width="0.75" stroke-linecap="round"/>
<path d="M12.5048 14.6764L12.4888 11.2034" stroke="black" stroke-width="0.75" stroke-linecap="round"/>
<path d="M10.5088 11.2338L10.5298 14.6598" stroke="black" stroke-width="0.75" stroke-linecap="round"/>
</g>
<defs>
<filter id="filter0_d_1_15663" x="0.4" y="0.4" width="21.2" height="22.2" filterUnits="userSpaceOnUse" color-interpolation-filters="sRGB">
<feFlood flood-opacity="0" result="BackgroundImageFix"/>
<feColorMatrix in="SourceAlpha" type="matrix" values="0 0 0 0 0 0 0 0 0 0 0 0 0 0 0 0 0 0 127 0" result="hardAlpha"/>
<feOffset dy="1"/>
<feGaussianBlur stdDeviation="1.3"/>
<feColorMatrix type="matrix" values="0 0 0 0 0 0 0 0 0 0 0 0 0 0 0 0 0 0 0.32 0"/>
<feBlend mode="normal" in2="BackgroundImageFix" result="effect1_dropShadow_1_15663"/>
<feBlend mode="normal" in="SourceGraphic" in2="effect1_dropShadow_1_15663" result="shape"/>
</filter>
</defs>
</svg>
